/* XPM */
static char *_7fd6561abac4247984d55971e787839Wnd4kBSys7fnWZ4W[] = {
/* columns rows colors chars-per-pixel */
"50 50 176 2 ",
"   c gray97",
".  c gray98",
"X  c #979696",
"o  c #211F1F",
"O  c #222020",
"+  c #232121",
"@  c #A7A6A6",
"#  c gray96",
"$  c #9F9D9D",
"%  c #737171",
"&  c #767474",
"*  c #504E4E",
"=  c #565454",
"-  c #A8A7A7",
";  c #F3F3F3",
":  c #646262",
">  c #1A1818",
",  c #1E1C1C",
"<  c #201E1E",
"1  c #1B1818",
"2  c #737272",
"3  c #F8F8F8",
"4  c #F6F6F6",
"5  c #676666",
"6  c #1F1C1C",
"7  c #1F1D1D",
"8  c #767575",
"9  c #E4E4E4",
"0  c #B8B7B7",
"q  c #B6B5B5",
"w  c #B3B2B2",
"e  c #515050",
"r  c #5C5A5A",
"t  c #B9B8B8",
"y  c gray91",
"u  c #BBBABA",
"i  c #2C2B2B",
"p  c #262525",
"a  c #242222",
"s  c #252424",
"d  c #313030",
"f  c #C8C8C8",
"g  c #FBFBFB",
"h  c gray73",
"j  c #282626",
"k  c #2D2B2B",
"l  c #C8C7C7",
"z  c #EEEEEE",
"x  c #E6E6E6",
"c  c #E9E9E9",
"v  c #AEADAD",
"b  c #272525",
"n  c #2C2A2A",
"m  c #BAB9B9",
"M  c gray94",
"N  c #F9F9F9",
"B  c #9D9C9C",
"V  c #454444",
"C  c #484747",
"Z  c #3C3B3B",
"A  c #3F3D3D",
"S  c #474646",
"D  c #464545",
"F  c #AAA9A9",
"G  c #898888",
"H  c #1D1B1B",
"J  c #999898",
"K  c #8B8A8A",
"L  c #9B9A9A",
"P  c gray99",
"I  c #A2A1A1",
"U  c #818080",
"Y  c #848383",
"T  c #585757",
"R  c #EFEFEF",
"E  c #595757",
"W  c #1C1A1A",
"Q  c #1C1919",
"!  c #676565",
"~  c #F4F4F4",
"^  c #5B5959",
"/  c #696767",
"(  c #252323",
")  c #262424",
"_  c #242323",
"`  c #525050",
"'  c #C3C2C2",
"]  c #C7C6C6",
"[  c #C4C3C3",
"{  c #575555",
"}  c #636161",
"|  c #BEBDBD",
" . c #474545",
".. c #605F5F",
"X. c #EFEEEE",
"o. c #525151",
"O. c gray95",
"+. c #5F5E5E",
"@. c #F1F1F1",
"#. c #666565",
"$. c #757474",
"%. c #ECECEC",
"&. c #6A6868",
"*. c #9E9D9D",
"=. c #908F8F",
"-. c #8D8C8C",
";. c #403E3E",
":. c #8F8E8E",
">. c #919090",
",. c #949393",
"<. c gray85",
"1. c #3A3939",
"2. c #3C3A3A",
"3. c #545252",
"4. c gray79",
"5. c #CECECE",
"6. c #CBCBCB",
"7. c #595858",
"8. c #656464",
"9. c gray81",
"0. c #C5C5C5",
"q. c #494747",
"w. c #302E2E",
"e. c #2F2D2D",
"r. c #454343",
"t. c #464444",
"y. c #444242",
"u. c #2A2828",
"i. c #5A5959",
"p. c #E1E1E1",
"a. c #E7E7E7",
"s. c gainsboro",
"d. c #4E4D4D",
"f. c #605E5E",
"g. c gray93",
"h. c #5E5D5D",
"j. c #353333",
"k. c #626161",
"l. c #646363",
"z. c #615F5F",
"x. c #312F2F",
"c. c #4C4A4A",
"v. c #757373",
"b. c #747272",
"n. c #413F3F",
"m. c #626060",
"M. c #828181",
"N. c gray78",
"B. c #807E7E",
"V. c #8E8D8D",
"C. c #B9B9B9",
"Z. c #2B2929",
"A. c #7E7D7D",
"S. c #363434",
"D. c #3D3B3B",
"F. c #3B3939",
"G. c #9C9B9B",
"H. c #C2C1C1",
"J. c #424040",
"K. c #3A3838",
"L. c #CDCDCD",
"P. c #343232",
"I. c #292727",
"U. c gray67",
"Y. c gray88",
"T. c #DDDDDD",
"R. c #EAEAEA",
"E. c gray87",
"W. c #9F9E9E",
"Q. c #C0BFBF",
"!. c #4A4848",
"~. c #B2B1B1",
"^. c gray",
"/. c #DFDFDF",
"(. c gray69",
"). c white",
/* pixels */
"                                      . X o O O O O O O O + @ .                                     ",
"                                      . X o O O O O O O O + @ .                                     ",
"                                      . X o O O O O O O O + @ .                                     ",
"                                # $ % & * o O O O O O O O O = & % -                                 ",
"                                ; : > , < O O O O O O O O O < , 1 2                                 ",
"                    3 . . . . . 4 5 6 O O O O O O O O O O O O O 7 8 . . . . . . 3                   ",
"                  3 9 0 q q q q w e < O O O O O O O O O O O O O < r q q q q q t y 3                 ",
"                  . u i p p p p p + O O O O O O O O O O O O O O O a p p p p s d f .                 ",
"              3 3 g h j O O O O O O O O O O O O O O O O O O O O O O O O O O o k l g 3               ",
"              z x c v b O O O O O O O O O O O O O O O O O O O O O O O O O O o n m c x M             ",
"            N B V C Z + O O O O O O O O O O O O O O O O O O O O O O O O O O O a A S D F .           ",
"            N G H < o O O O O O O O O O O O O O O O O O O O O O O O O O O O O O < < 7 J .           ",
"        3 N g K 7 O O O O O O O O O O O O O O O O O O O O O O O O O O O O O O O O O o L P N 3       ",
"      ; I U Y e o O O O O O O O O O O O O O O O O O O O O O O O O O O O O O O O O O O T Y U F #     ",
"      R E W 7 < O O O O O O O O O O O O O O O O O O O O O O O O O O O O O O O O O O O < 7 Q ! ~     ",
"      R ^ 7 O O O O O O O O O O O O O O O O O O O O O O O O O O O O O O O O O O O O O O O 7 / ~     ",
"      R ^ 7 O O O O O O O O O O O O O O O O O O O O O O O O O O O O O O O O O O O O O O O 7 / ~     ",
"      R ^ 7 O O O O O O O O O O O O O O O O O O O O O O O O O O O O O O O O O O O O O O O 7 / ~     ",
"      R ^ 7 O O O O O o o o o o o O O O O O O O O O O O O O O O O O o o o o o o O O O O O 7 / ~     ",
"      R ^ 7 O O O O ( k k k k k k ) O O O O O O O O O O O O O O O ) k k k k k n _ O O O O 7 / ~     ",
"      R ^ 7 O O O 7 ` ' ] ] ] ] [ { 7 O O O O O O O O O O O O O 7 } ] ] ] ] l |  .< O O O 7 / ~     ",
"      R ^ 7 O O O 7 ..~ . . . . 4 5 6 O O O O O O O O O O O O O 7 8 . . . . g X.o.7 O O O 7 / ~     ",
"  . g O.r 7 O O O 7 +.@.        ; #.7 O O O O O O O O O O O O O 7 $.        3 %.` 7 O O O 6 &.  . . ",
"c *.=.-.;.< O O O 7 +.@.        ; #.7 O O O O O O O O O O O O O 7 $.        3 %.` 7 O O O <  .:.>.,.",
"<.1., < o O O O O 7 +.@.        ; #.7 O O O O O O O O O O O O O 7 $.        3 %.` 7 O O O O o < < ) ",
"<.2.< O O O O O O 7 ..~ . . . . 4 5 6 O O O O O O O O O O O O O 7 8 . . . . g z o.7 O O O O O O O j ",
"<.2.< O O O O O O 7 3.4.5.5.5.5.6.7.7 O O O O O O O O O O O O O 7 8.5.5.5.5.9.0.q.< O O O O O O O j ",
"<.2.< O O O O O O O ) w.w.w.w.w.w.b O O O O O O O O O O O O O O O b w.w.w.w.w.e.( O O O O O O O O j ",
"<.2.< O O O O O O O O o o o o o o O O O O O O O O O O O O O O O O O o o o o o o O O O O O O O O O j ",
"<.2.< O O O O O O O O O O O O O O O O O O O O O O O O O O O O O O O O O O O O O O O O O O O O O O j ",
"<.2.< O O O O O O O O O O O O O O O O O O O O O O O O O O O O O O O O O O O O O O O O O O O O O O j ",
"<.2.< O O O O O O O O O O O O O O O O O O O O O O O O O O O O O O O O O O O O O O O O O O O O O O j ",
"<.2.< O O O O O O O O O O O O O O O O O O O O O O O O O O O O O O O O O O O O O O O O O O O O O O j ",
"<.2.< O O O O O O O O O O O O O O O O O O O O O O O O O O O O O O O O O O O O O O O O O O O O O O j ",
"<.2.< O O O O O O O O O O O O O O O O O O O O O O O O O O O O O O O O O O O O O O O O O O O O O O j ",
"<.2.< O O O O O O O o < < < < < < < < < < < < < < < < < < < < < < < < < < < < < O O O O O O O O O j ",
"<.2.< O O O O O O o n r.t.t.t.t.t.t.t.t.t.t.t.t.t.t.t.t.t.t.t.t.t.t.t.t.t.t.t.y.u.O O O O O O O O j ",
"<.2.< O O O O O O 7 i.p.x x x x x x x x x x x x x x x x x x x x x x x x x x a.s.d.7 O O O O O O O j ",
"<.2.< O O O O O O 7 f.O.3 3 3 3 3 3 3 3 3 3 3 3 3 3 3 3 3 3 3 3 3 3 3 3 3 3 N g.o.7 O O O O O O O j ",
"<.2.< O O O O O O 7 h.g.; ; ; ; ; ; ; ; ; ; ; ; ; ; ; ; ; ; ; ; ; ; ; ; ; ; ~ y e 7 O O O O O O O j ",
"<.2.< O O O O O O o j.k.l.l.l.l.l.l.l.l.l.l.l.l.l.l.l.l.l.l.l.l.l.l.l.l.l.l.l.z.x.o O O O O O O O j ",
"<.2.< O O O O O O O o 7 7 7 7 7 7 7 7 7 7 7 7 7 7 7 7 7 7 7 7 7 7 7 7 7 7 7 7 7 o O O O O O O O O j ",
"<.2.< O O O O < , , 7 O O O O O O O O O < , , , , , , , , , o O O O O O O O O O 7 , , < O O O O O j ",
"<.2.< O O O o c.v.v.r a O O O O O O O o  .v.b.b.b.b.b.b.b.b.n.o O O O O O O O ) m.v.b.t.o O O O O j ",
"<.2.< O O O < :.. . m j O O O O O O O 7 M.3               4 % 7 O O O O O O o k N.. 3 B.7 O O O O j ",
"<.2.< O o < , V.. . C.) < < O O O O O 7 M.3               4 % 7 O O O O O < 7 Z.] . 3 A.H < o O O j ",
"<.2.< + S.D.F.G.N . H.J.D.K.) O O O O 7 M.3               4 % 7 O O O O b F.D. .L.. 3 :.K.D.P.O O j ",
"<.2.< I.U.Y.T.R.    M E.E.f F.< O O O 7 M.3               4 % 7 O O O < r.9.E.E.@.    y T.Y.W.( o j ",
"<.2.< u.Q.P N 3       N g p.A < O O O 7 M.3               4 % 7 O O O < !.c . N       3 N P ~.( o j ",
"<.2.< u.^..             N /.A < O O O 7 M.3               4 % 7 O O O < !.a.3             . (.( o j "
};
