/* XPM */
static char *_366551ae26b44dace2569b54fcc5925SjX334VhRe0BsV7c[] = {
/* columns rows colors chars-per-pixel */
"50 50 256 2 ",
"   c #DA875E",
".  c #D1642E",
"X  c #D16530",
"o  c #DB8D66",
"O  c #D1642F",
"+  c #D1632E",
"@  c #D1652F",
"#  c #D0632D",
"$  c #D6794B",
"%  c #E3AE92",
"&  c #E4B196",
"*  c #E4B298",
"=  c #DE9774",
"-  c #D16631",
";  c #D26935",
":  c #DF9F7E",
">  c #E4B297",
",  c #E2A98B",
"<  c #D4703F",
"1  c #DB8C64",
"2  c #E4B197",
"3  c #D9875E",
"4  c #D57444",
"5  c #E3AC8F",
"6  c #DF9D7C",
"7  c #D26834",
"8  c #D16732",
"9  c #DF9C7A",
"0  c #E3AE91",
"q  c #D67849",
"w  c #D0622B",
"e  c #F6F4F3",
"r  c #F7F9FA",
"t  c #F8FBFD",
"y  c #EAC8B6",
"u  c #D36C39",
"i  c #EED7CA",
"p  c #F7FAFB",
"a  c #F3EAE5",
"s  c #D77B4E",
"d  c #D0622C",
"f  c #F7FBFD",
"g  c #E2A88A",
"h  c #D0612B",
"j  c #D88257",
"k  c #F4EFEC",
"l  c #EDD3C6",
"z  c #D26B38",
"x  c #ECD0C2",
"c  c #F7F9FB",
"v  c #F5F2F1",
"b  c #DA8A61",
"n  c #DB8C65",
"m  c #F6F2F0",
"M  c gray97",
"N  c #F8F9FA",
"B  c #EAC6B4",
"V  c #EED5C8",
"C  c #F7F8F8",
"Z  c #F3E8E2",
"A  c #E4B096",
"S  c #E2A789",
"D  c #D88256",
"F  c #F4EDE9",
"G  c #EDD2C4",
"H  c #D26B37",
"J  c #ECCFC0",
"K  c #F7F7F8",
"L  c #F5F1EE",
"P  c #DA8961",
"I  c #DB8D65",
"U  c #F6F4F2",
"Y  c #F7F9F9",
"T  c #F8FBFC",
"R  c #F7FAFA",
"E  c #F3EAE4",
"W  c #F7FBFC",
"Q  c #F4EFEB",
"!  c #EDD3C5",
"~  c #ECD0C1",
"^  c #F5F2F0",
"/  c #D6784A",
"(  c #E2AB8F",
")  c #E3AD92",
"_  c #E3AE94",
"`  c #DD9571",
"'  c #DF9C7B",
"]  c #E3AE93",
"[  c #E3AD93",
"{  c #E1A688",
"}  c #D4703E",
"|  c #DA8A62",
" . c #D9865C",
".. c #D1632D",
"X. c #D47343",
"o. c #E2A88B",
"O. c #DE9B79",
"+. c #DE9977",
"@. c #E2AA8E",
"#. c #D57748",
"$. c #D0642E",
"%. c #D26A36",
"&. c #D57647",
"*. c #D47140",
"=. c #D47342",
"-. c #D57545",
";. c #D36E3C",
":. c #D36D3B",
">. c #D57646",
",. c #D47242",
"<. c #D16531",
"1. c #D47241",
"2. c #D26936",
"3. c #DA885E",
"4. c #F1E1D7",
"5. c #F2E5DD",
"6. c #F3E7E0",
"7. c #E7BAA3",
"8. c #EAC7B4",
"9. c #F2E7DF",
"0. c #F2E6DE",
"q. c #EED8CB",
"w. c #E2A788",
"e. c #DF9E7D",
"r. c #D77E51",
"t. c #F0DCD1",
"y. c #E9C4B0",
"u. c #E9C2AD",
"i. c #F0DFD5",
"p. c #D9855A",
"a. c #F6F3F2",
"s. c #F7F8F9",
"d. c #F8FAFC",
"f. c #EAC7B6",
"g. c #EED6CA",
"h. c #F3E9E4",
"j. c #F7FAFC",
"k. c #E2A78A",
"l. c #F4EEEB",
"z. c #EDD2C5",
"x. c #F7F8FA",
"c. c #F5F1F0",
"v. c #F6F3F1",
"b. c #F8FAFB",
"n. c #EAC7B5",
"m. c #EED6C9",
"M. c #F3E9E3",
"N. c #F4EEEA",
"B. c #ECD0C0",
"V. c #F5F1EF",
"C. c #DA885F",
"Z. c #F1E2DA",
"A. c #F2E6E0",
"S. c #F3E8E3",
"D. c #E7BBA5",
"F. c #EAC8B7",
"G. c #F2E8E2",
"H. c #F2E7E1",
"J. c #EFD9CE",
"K. c #E09F7E",
"L. c #D77E52",
"P. c #F0DDD4",
"I. c #F2E8E3",
"U. c #E9C5B2",
"Y. c #D26A37",
"T. c #E9C2AF",
"R. c #F2E6E1",
"E. c #F0E0D8",
"W. c #D9855B",
"Q. c #D67749",
"!. c #D46F3D",
"~. c #D67748",
"^. c #D57343",
"/. c #E4B198",
"(. c #E4B097",
"). c #D9875D",
"_. c #E3AB8F",
"`. c #DF9B7A",
"'. c #E3AD91",
"]. c #E2A98D",
"[. c #DC926D",
"{. c #DE9876",
"}. c #E2A98C",
"|. c #E2A88C",
" X c #E0A181",
".X c #D36F3D",
"XX c #D98359",
"oX c #E1A385",
"OX c #DD9773",
"+X c #D26833",
"@X c #DD9672",
"#X c #E1A587",
"$X c #D57546",
"%X c #D0632E",
"&X c #D57445",
"*X c #D36D3A",
"=X c #D26835",
"-X c #D47141",
";X c #F1E0D7",
":X c #F2E4DD",
">X c #F3E6E0",
",X c #E8BEA8",
"<X c #D26733",
"1X c #F2E6DF",
"2X c #F2E5DE",
"3X c #EED7CB",
"4X c #E2A688",
"5X c #F0DBD1",
"6X c #E9C3B0",
"7X c #E9C1AD",
"8X c #F0DED5",
"9X c #D9845A",
"0X c #EBCCBB",
"qX c #EBCBBA",
"wX c #F1DFD6",
"eX c #F2E3DC",
"rX c #F3E5DF",
"tX c #E8BDA7",
"yX c #EAC6B3",
"uX c #F0DAD0",
"iX c #E9C3AF",
"pX c #E9C0AC",
"aX c #D57344",
"sX c #D36C3A",
"dX c #E4AF95",
"fX c #DE9976",
"gX c #D16632",
"hX c #E09E7D",
"jX c #E4AF96",
"kX c #DB8B64",
"lX c #D9865D",
"zX c #E3AA8E",
"xX c #DF9B79",
"cX c #E3AC90",
"vX c #F7F4F3",
"bX c #F9FBFD",
"nX c #ECCCBC",
"mX c #EFD7CA",
"MX c #F4EAE5",
"NX c #E5B197",
"BX c #F5EFEC",
"VX c #EDD0C2",
"CX c #F8F9FB",
"ZX c #F6F2F1",
"AX c #E3A98C",
"SX c #E3AA8D",
"DX c #DD9570",
"FX c #DF9976",
"GX c #E3A98D",
"HX c #E1A282",
"JX c #D46F3E",
"KX c #D98459",
"LX c #E2A486",
"PX c #DE9874",
"IX c #DE9673",
"UX c white",
/* pixels */
"  . X X X X X X X X X X X X X X X X X X X X X X X X X X X X X X X X X X X X X X X X X X X X X X . o ",
"  . O + + + + + + O X X + + + + + + + X X O + + + + + + O X X + + + + + + . X X O + + + + + + @ . o ",
"  # $ % & & & & * = - ; : > & & & > , < + 1 > & & & & 2 3 # 4 5 & & & & > 6 7 8 9 * & & & & 0 q # o ",
"  w o e r r r r t y - u i t r r r p a s d 2 f r r r r p g h j k p r r r t l z ; x t r r r c v b h o ",
"  w n m M M M M N B - u V N M M M C Z s d A r M M M M C S h D F C M M M N G H ; J N M M M K L P w o ",
"  w n m M M M M N B - u V N M M M C Z s d A r M M M M C S h D F C M M M N G H ; J N M M M K L P w o ",
"  w n m M M M M N B - u V N M M M C Z s d A r M M M M C S h D F C M M M N G H ; J N M M M K L P w o ",
"  w n m M M M M N B - u V N M M M C Z s d A r M M M M C S h D F C M M M N G H ; J N M M M K L P w o ",
"  w I U Y Y Y Y T y - u i T Y Y Y R E s d 2 W Y Y Y Y R g h j Q R Y Y Y T ! z ; ~ T Y Y Y r ^ b h o ",
"  # / ( ) ) ) ) _ ` - ; ' ] ) ) ) [ { } . | ] ) ) ) ) ]  ...X.o.) ) ) ) ] O.7 8 +._ ) ) ) ) @.#.# o ",
"  . O d d d d d d # X X # d d d d d d @ X $.d d d d d d . X @ d d d d d d # X X # d d d d d d O . o ",
"  + %.&.#.#.#.#.#.*.X - =.#.#.#.#.#.-.7 X ;.#.#.#.#.#.#.:.@ ; >.#.#.#.#.#.,.- <.1.#.#.#.#.#.&.2.+ o ",
"  d 3.4.5.5.5.5.6.7.- z 8.9.5.5.5.0.q./ d w.9.5.5.5.5.0.e.w r.t.0.5.5.5.9.y.%.7 u.6.5.5.5.5.i.p.d o ",
"  w I a.s.s.s.s.d.f.- u g.d.s.s.s.r h.s d & j.s.s.s.s.r k.h j l.r s.s.s.d.z.H ; ~ d.s.s.s.x.c.P w o ",
"  w n m M M M M N B - u V N M M M C Z s d A r M M M M C S h D F C M M M N G H ; J N M M M K L P w o ",
"  w n m M M M M N B - u V N M M M C Z s d A r M M M M C S h D F C M M M N G H ; J N M M M K L P w o ",
"  w n m M M M M N B - u V N M M M C Z s d A r M M M M C S h D F C M M M N G H ; J N M M M K L P w o ",
"  w I v.C C C C b.n.- u m.b.C C C Y M.s d & p C C C C Y S h j N.Y C C C b.G H ; B.b.C C C s.V.P w o ",
"  d C.Z.A.A.A.A.S.D.- z F.G.A.A.A.H.J./ d k.G.A.A.A.A.H.K.w L.P.H.A.A.A.I.U.Y.7 T.S.A.A.A.R.E.W.d o ",
"  + Y.Q./ / / / / 1.X - 4 / / / / / &.7 @ !./ / / / / / ;.O ; ~./ / / / / ^.- <.^./ / / / / Q.%.+ o ",
"  . O d d d d d d # X X # d d d d d d @ X $.d d d d d d . X @ d d d d d d # X X # d d d d d d O . o ",
"  # $ ] A A A A /.= - ; K.2 A A A (.o.< + 1 2 A A A A (.).# 4 _.A A A A 2 6 7 8 `./.A A A A '.Q.# o ",
"  w o e r r r r t y - u i t r r r p a s d 2 f r r r r p g h j k p r r r t l z ; x t r r r c v b h o ",
"  w n m M M M M N B - u V N M M M C Z s d A r M M M M C S h D F C M M M N G H ; J N M M M K L P w o ",
"  w n m M M M M N B - u V N M M M C Z s d A r M M M M C S h D F C M M M N G H ; J N M M M K L P w o ",
"  w n m M M M M N B - u V N M M M C Z s d A r M M M M C S h D F C M M M N G H ; J N M M M K L P w o ",
"  w n m M M M M N B - u V N M M M C Z s d A r M M M M C S h D F C M M M N G H ; J N M M M K L P w o ",
"  w I a.s.s.s.s.d.f.- u g.d.s.s.s.r h.s d & j.s.s.s.s.r k.h j l.r s.s.s.d.z.z ; ~ d.s.s.s.x.^ P w o ",
"  # #.{ o.o.o.o.].[.- 7 {.}.o.o.o.|. X.X. 3.}.o.o.o.o.|.XX+ ,.oXo.o.o.o.}.OX+X8 @X}.o.o.o.o.#X$X# o ",
"  . O d d d d d d # X X # d d d d d d @ X %Xd d d d d d . X O d d d d d d # X X # d d d d d d O . o ",
"  + %.$X&.&.&.&.&.*.X - ,.&.&.&.&.&.&X+XX ;.&.&.&.&.&.&.*X@ =X-.&.&.&.&.&.1.- <.-X&.&.&.&.&.$X2.+ o ",
"  d   ;X:X:X:X:X>X,X<Xz 8.1X:X:X:X2X3X/ d 4X1X:X:X:X:X2Xe.w L.5X2X:X:X:X1X6X%.7 7X>X:X:X:X:X8X9Xd o ",
"  w I a.s.s.s.s.d.0X+Xu g.d.s.s.s.r h.s d & j.s.s.s.s.r k.h j l.r s.s.s.d.z.H ; ~ d.s.s.s.x.c.P w o ",
"  w n m M M M M N qX+Xu V N M M M C Z s d A r M M M M C S h D F C M M M N G H ; J N M M M K L P w o ",
"  w n m M M M M N qX+Xu V N M M M C Z s d A r M M M M C S h D F C M M M N G H ; J N M M M K L P w o ",
"  w n m M M M M N qX+Xu V N M M M C Z s d A r M M M M C S h D F C M M M N G H ; J N M M M K L P w o ",
"  w I a.s.s.s.s.d.0X+Xu g.d.s.s.s.r h.s d & j.s.s.s.s.r k.h j l.r s.s.s.d.z.z ; ~ d.s.s.s.x.c.P w o ",
"  d   wXeXeXeXeXrXtX<Xz yX2XeXeXeX:Xg.q d 4X2XeXeXeXeX:Xe.w r.uX:XeXeXeX2XiX%.7 pXrXeXeXeXeXP.9Xd o ",
"  + 2.&X$X$X$X$X$X< X - -X$X$X$X$X$XaX<XX :.$X$X$X$X$X$XsX@ 7 4 $X$X$X$X$X*.- <.*.$X$X$X$X$X&X; + o ",
"  . O d d d d d d # X X # d d d d d d @ X $.d d d d d d . X @ d d d d d d # X X # d d d d d d O . o ",
"  # $ ) dXdXdXdX(.fXgX; hXA dXdXdXjXo.< . kXA dXdXdXdXA lX# 4 zXdXdXdXdXA ' 7 8 xX(.dXdXdXdXcXQ.# o ",
"  w o vXN N N N bXnX7 u mXbXN N N b.MXs d NXt N N N N b.g h j BXb.N N N bXl z ; VXbXN N N CXZXb h o ",
"  w n m M M M M N qX+Xu V N M M M C Z s d A r M M M M C S h D F C M M M N G H ; J N M M M K L P w o ",
"  w n m M M M M N qX+Xu V N M M M C Z s d A r M M M M C S h D F C M M M N G H ; J N M M M K L P w o ",
"  w n m M M M M N qX+Xu V N M M M C Z s d A r M M M M C S h D F C M M M N G H ; J N M M M K L P w o ",
"  w n m M M M M N qX+Xu V N M M M C Z s d A r M M M M C S h D F C M M M N G H ; J N M M M K L P w o ",
"  w I U Y Y Y Y T 0X7 u i T Y Y Y R E s d 2 W Y Y Y Y R g h j Q R Y Y Y T ! z ; ~ T Y Y Y r ^ b h o ",
"  # ~.S AXAXAXAXSXDXgX7 FXSXAXAXAXGXHXJX. C.SXAXAXAXAXGXKX+ ,.LXAXAXAXAXSXPX+X8 IXSXAXAXAXAX4X&.# o ",
"  . O # # # # # # $.X X %X# # # # # # X X O # # # # # # O X X # # # # # # %XX X $.# # # # # # O . o ",
"  . X X X X X X X X X X X X X X X X X X X X X X X X X X X X X X X X X X X X X X X X X X X X X X . o "
};
