/* XPM */
static char *e7b58ef569f14a259d9b875a9221835dXt8FgDSO0N6DMFq4[] = {
/* columns rows colors chars-per-pixel */
"50 50 197 2 ",
"   c gray97",
".  c #F8F8F8",
"X  c #F9F9F9",
"o  c gray98",
"O  c gray95",
"+  c #E6E6E6",
"@  c #F1F1F1",
"#  c gray96",
"$  c gray92",
"%  c #DADADA",
"&  c #BCBBBB",
"*  c #9A9999",
"=  c #767575",
"-  c #5B5A5A",
";  c #C9C8C8",
":  c #F8F7F7",
">  c #EEEEEE",
",  c #DFDFDF",
"<  c #C5C5C5",
"1  c #A2A1A1",
"2  c #7E7D7D",
"3  c #5D5B5B",
"4  c #3E3B3B",
"5  c #2D2C2C",
"6  c #222020",
"7  c #1E1C1C",
"8  c #2D2B2B",
"9  c #C0BFBF",
"0  c gray90",
"q  c #CCCBCB",
"w  c #AAA9A9",
"e  c #888787",
"r  c #656464",
"t  c #434242",
"y  c #312F2F",
"u  c #242222",
"i  c #1D1B1B",
"p  c #252323",
"a  c #323030",
"s  c #393737",
"d  c #2F2D2D",
"f  c #C1C0C0",
"g  c gray91",
"h  c gray83",
"j  c #B5B4B4",
"k  c #919090",
"l  c #6F6D6D",
"z  c #4E4C4C",
"x  c #343232",
"c  c #272525",
"v  c #1C1A1A",
"b  c #2E2C2C",
"n  c #403F3F",
"m  c #616060",
"M  c #838282",
"N  c #A6A5A5",
"B  c #CBCBCB",
"V  c #A9A9A9",
"C  c #BFBEBE",
"Z  c #F6F8F8",
"A  c #F4F5F5",
"S  c #F6F6F6",
"D  c #727171",
"F  c #555454",
"G  c #3A3838",
"H  c #2B2929",
"J  c #1F1D1D",
"K  c #201E1E",
"L  c #585656",
"P  c #797878",
"I  c #9D9C9C",
"U  c gainsboro",
"Y  c #ECECEC",
"T  c gray99",
"R  c #BDBCBC",
"E  c #262424",
"W  c #646363",
"Q  c #7C7B7B",
"!  c #7B7A7A",
"~  c #7A7979",
"^  c #8B8B8B",
"/  c gray87",
"(  c #4F4D4D",
")  c #727070",
"_  c #939292",
"`  c #B7B7B7",
"'  c #D7D6D6",
"]  c #F4F3F3",
"[  c #BBBBBB",
"{  c #211F1F",
"}  c #1E1B1B",
"|  c #1D1A1A",
" . c #3C3A3A",
".. c #686666",
"X. c gray80",
"o. c #515050",
"O. c #626161",
"+. c #504E4E",
"@. c #3E3C3C",
"#. c #CDCCCC",
"$. c #232121",
"%. c #333131",
"&. c gray72",
"*. c gray70",
"=. c #3D3B3B",
"-. c #828181",
";. c #F3F3F3",
":. c #C1C1C1",
">. c #FBFBFB",
",. c #B1B0B0",
"<. c gray84",
"1. c #949393",
"2. c #302E2E",
"3. c #605F5F",
"4. c #D5D5D5",
"5. c #615F5F",
"6. c gray94",
"7. c gray60",
"8. c #C3C2C2",
"9. c #FDFDFD",
"0. c #9C9B9B",
"q. c #353333",
"w. c #232020",
"e. c #2A2828",
"r. c #929191",
"t. c #BAB9B9",
"y. c #B8B7B7",
"u. c #B9B8B8",
"i. c #636161",
"p. c #D5D4D4",
"a. c #DDDCDC",
"s. c #6C6B6B",
"d. c #E1E1E1",
"f. c #333232",
"g. c #9E9D9D",
"h. c #CAC9C9",
"j. c #C8C7C7",
"k. c #BEBDBD",
"l. c #6B6A6A",
"z. c #DCDBDB",
"x. c #C2C1C1",
"c. c #EFEFEF",
"v. c #909090",
"b. c #6B6969",
"n. c #EDECEC",
"m. c #8E8D8D",
"M. c #373535",
"N. c #6A6969",
"B. c #DDDDDD",
"V. c #7E7C7C",
"C. c #292727",
"Z. c #A4A3A3",
"A. c #807E7E",
"S. c #2C2A2A",
"D. c #403E3E",
"F. c #C8C8C8",
"G. c gray89",
"H. c #282626",
"J. c #4B4A4A",
"K. c #979696",
"L. c #BCBCBC",
"P. c #EFEEEE",
"I. c #383636",
"U. c #525050",
"Y. c #D1D0D0",
"T. c gray79",
"R. c gray66",
"E. c #3A3939",
"W. c #434141",
"Q. c #676666",
"!. c #8D8C8C",
"~. c #B4B3B3",
"^. c #ADACAC",
"/. c #DFDEDE",
"(. c #E0DFDF",
"). c #F2F1F1",
"_. c #B2B2B2",
"`. c #8C8B8B",
"'. c #676565",
"]. c #424141",
"[. c #201D1D",
"{. c #5C5B5B",
"}. c #999797",
"|. c #989797",
" X c #4A4949",
".X c #313030",
"XX c #A3A2A2",
"oX c #7D7B7B",
"OX c #565454",
"+X c #F5F4F4",
"@X c #E8E7E7",
"#X c #D3D2D2",
"$X c #AFAEAE",
"%X c #868585",
"&X c gray93",
"*X c #F3F2F2",
"=X c white",
/* pixels */
"                              . X o o O + @                                                         ",
"                    . . o o # $ % & * = - ; X                                                       ",
"            . X o : > , < 1 2 3 4 5 6 7 8 9 o                                                       ",
". . X o X @ 0 q w e r t y u i i p a s p d f o                                                       ",
"O g h j k l z x c i v 6 b n m M N B V a b C Z A A A A A A A A A A A A A A A A A A # S               ",
"D F G H J v K H G L P I 9 U Y S o T R x E W Q ! ! ! ! ! ! ! ! ! ! ! ! ! ! ! ! ! ~ ^ / .             ",
"J K E x ( ) _ ` ' g ] o X . .     o [ x { } | | | | | | | | | | | | | | | | | } i  .q X             ",
"6 6 ..X.0 O X o X .               o [ x p o.O.m m m m m m m m m m m m m m m O.+.E @.#.X             ",
"6 $.M # X                         o [ %.8 &.> Y Y Y Y Y Y Y Y Y Y Y Y Y Y Y > *.a =.#.X             ",
"6 $.-.;.                          o [ %.b :.>.. . . . . . . . . . . . . . . >.& %.=.#.X             ",
"6 $.-.;.                          o [ %.b f o                               o [ %.=.#.X             ",
"6 $.-.;.                          o [ %.b f o                               o [ %.=.#.X             ",
"6 $.-.;.                          o [ %.b f o                               o [ %.=.#.X             ",
"6 $.-.;.                          o [ %.b f o                               o [ %.=.#.X             ",
"6 $.-.;.                          o [ %.b f o           . X .               o [ %.=.#.X             ",
"6 $.-.;.                          o [ %.b f o         . $ ,.<.X             o [ %.=.#.X             ",
"6 $.-.;.                          o [ %.b f o         O 1.2.3.4.X           o [ %.=.#.X             ",
"6 $.-.;.                          o [ %.b f o         ;.I a { 5.4.X         o [ %.=.#.X             ",
"6 $.-.;.                          o [ %.b f o         . 6.7.a { 5.4.X       o [ %.=.#.X             ",
"6 $.-.;.                          o [ %.b 8.9.o o o o o >.;.0.q.w.3.4.X     o [ %.=.#.X             ",
"6 $.-.;.                          o [ x e.r.t.y.y.y.y.y.y.u.,.i.u $.5.p..   o [ %.=.#.X             ",
"6 $.-.;.                          o [ x 6 e.8 8 8 8 8 8 8 8 8 H $.6 $.i.a.. o [ %.=.#.X             ",
"6 $.-.;.                          o [ x 6 8 y y y y y y y y a 8 $.{ u s.d.. o [ %.=.#.X             ",
"6 $.-.;.                          o [ f.H g.h.j.j.j.j.j.j.; k.r u u l.z..   o [ %.=.#.X             ",
"6 $.-.;.                          o [ %.b x.T X X X X X o c.v.d u b.U X     o [ %.=.#.X             ",
"6 $.-.;.                          o [ %.b f o         . n.m.b $.l.U X       o [ %.=.#.X             ",
"6 $.-.;.                          o [ %.b f o         O 1.8 $.l.U X         o [ %.=.#.X             ",
"6 $.-.;.                          o [ %.b f o         ;.I M.N.U X           o [ %.=.#.X             ",
"6 $.-.;.                          o [ %.b f o         . > R B..             o [ %.=.#.X             ",
"6 $.-.;.                          o [ %.b f o           . X .               o [ %.=.#.X             ",
"6 $.-.;.                          o [ %.b f o                               o [ %.=.#.X             ",
"6 $.-.;.                          o [ %.b f o                               o [ %.=.#.X             ",
"6 $.-.;.                          o [ %.b f o                               o [ %.=.#.X             ",
"6 $.-.;.                          o [ %.b f o                               o [ %.=.#.X             ",
"6 $.-.]                           o [ %.b 8.9.o o o o o o o o o o o o o o o 9.k.%.=.#.X             ",
"6 $.V.@ o o .                     o [ x C.M N Z.Z.Z.Z.Z.Z.Z.Z.Z.Z.Z.Z.Z.Z.Z.N A.S.@.#.X             ",
"{ { D.! 1 F.G.O X o . .           o [ x { u p p p p p p p p p p p p p p p p p u J =.X.X             ",
"a H.J i p %.J.) K.L./ P.. o X .   o [ x 6 a I.I.I.I.I.I.I.I.I.I.I.I.I.I.I.I.I.I.M.U.Y.X             ",
"T.R.-.3 E.e.J v { 8 W.Q.!.~.<.$ S 9.R f.S.^./.a.a.a.a.a.a.a.a.a.a.a.a.a.a.a.a.a.a.(.).              ",
"X o S $ <._.`.'.].b { v [.H  .{.-.w }.y b x.T X X X X X X X X X X X X X X X X X X .                 ",
"      . X o . > a.C |.D  X.Xu i 7 c 8 $.d f o                                                       ",
"              . X X o O G.T.XXoXOXI.C.J S.9 o                                                       ",
"                        X X o +X@X#X$X%Xl.#.X                                                       ",
"                                . X o   &X*X                                                        ",
"                                        .                                                           ",
"                                                                                                    ",
"                                                                                                    ",
"                                                                                                    ",
"                                                                                                    ",
"                                                                                                    "
};
