/* XPM */
static char *a6907980eed24dd58569d4782cb63b0bz8KmWU1ujU82FOq7[] = {
/* columns rows colors chars-per-pixel */
"50 50 79 1 ",
"  c #6CD93F",
". c #6FD943",
"X c #70D945",
"o c #75DA4C",
"O c #7BDC54",
"+ c #7EDC58",
"@ c #81DD5C",
"# c #85DE62",
"$ c #88DE65",
"% c #8BDF69",
"& c #8EE06D",
"* c #90E06F",
"= c #93E174",
"- c #97E278",
"; c #9AE37D",
": c #9DE381",
"> c #A1E487",
", c #A5E58B",
"< c #ACE795",
"1 c #AEE798",
"2 c #AFE899",
"3 c #B1E79B",
"4 c #B2E89C",
"5 c #B6E9A2",
"6 c #B8EAA5",
"7 c #BDEAAB",
"8 c #C0EBAF",
"9 c #C4ECB5",
"0 c #C6ECB8",
"q c #C9EDBC",
"w c #CEEEC2",
"e c #D0EEC5",
"r c #D3EFC9",
"t c #D4EFC9",
"y c #D4EFCA",
"u c #D4F0C9",
"i c #D5F0CA",
"p c #D6F0CD",
"a c #D7F1CE",
"s c #D9F0CF",
"d c #D8F1CF",
"f c #D9F0D1",
"g c #DAF0D0",
"h c #DBF1D2",
"j c #DCF1D5",
"k c #DEF2D7",
"l c #DFF2D9",
"z c #E0F2D9",
"x c #E2F2DB",
"c c #E2F2DC",
"v c #E5F3DF",
"b c #E6F3E1",
"n c #E7F3E3",
"m c #E8F4E4",
"M c #EAF4E7",
"N c #EBF4E8",
"B c #ECF5E8",
"V c #EDF5EA",
"C c #EDF5EB",
"Z c #EEF5EC",
"A c #EFF5EC",
"S c #F0F5ED",
"D c #F0F6EE",
"F c #F2F6F1",
"G c #F4F6F3",
"H c #F5F7F4",
"J c #F5F6F5",
"K c #F7F7F6",
"L c gray97",
"P c #F7F7F8",
"I c #F8F7F8",
"U c #F9F7F9",
"Y c #F9F7FA",
"T c #FAF7FA",
"R c #FBF7FB",
"E c #FBF7FC",
"W c #FBF7FD",
"Q c #F9F8FA",
"! c #FBF8FC",
/* pixels */
"LLLLLLLLLLLLLLLLLLLGq777797979ALLLLLLLLLLLLLLLLLLL",
"LLLLLLLLLLLLLLLLLLYA&.ooo.XXX+lPLLLLLLLLLLLLLLLLLL",
"LLLLLLLLLLLLLLLLIYYD&.X..o.o.OlELPLLLLLLLLLLLLLLLL",
"LLLLLLLLLLLLLLLLFcxs&.XX.....OwcxAPLLLLLLLLLLLLLLL",
"LLLLLLLLLLLLLLIIs@+Oo.XXXXXXXXOO+9QLLLLLLLLLLLLLLL",
"LLLLLLLLLLLLLLLYgo..X.XXXXXXXX.XX7YLLLLLLLLLLLLLLL",
"LLLLLLLLLLFFDDDGpoXXXXXXXXXXXXXX.7FDDFDFLLLLLLLLLL",
"LLLLLLLLLF<&==*=&.XXXXXXXXXXXXXX.#=*===:MLLLLLLLLL",
"LLLLLLLLLD= . ...XXXXXXXXXXXXXXXXX... .OcYLPLLLLLL",
"LLLLLLLYIF=.XXXXX.XXXXXXXXXXXXXXXXXXXX.@bYYPLLLLLL",
"LLLLLLM521+.XXXXXXXXXXXXXXXXXXXXXXXXXXXo,42kPPLLLL",
"LLLLLYko...XXXXXXXXXXXXXXXXXXXXXXXXXXXXX...9PLLLLL",
"LLLLYElO..X...XXXXXXXXXXXXXXX......X.XXX.XX0EEPLLL",
"LLYbee9;==-=-@XXXXXXXXXXXXXXXo%=-==-%XXXXXX<ywlPLL",
"LLY7XX$bLFGGI5.XXXXXXXXXXXXXXOjPGGFL9oXXXXXoo.:LLL",
"LLY7..#MYLLLY5...XXXXXXXXXXXXOlPLPP!0...XXX...>LLL",
"LLQ9++=AYYQLY7OOOoXXXXXXXXoO+&cP!P!Qw++O.XXX..>LLP",
"LLLZswycxxvFYDvv0o.XXXXXX.&gwylcccZPZcvy+.XX..>LLP",
"LLLQ7+++++@sYIIYyO.XXXXXX.=w++++++9EPQQb@.XX..:LLL",
"LLLQ6.X...otYIIYgoXXXXXXX.=0o.....7PPPYb@XXXo.>LLL",
"LLLQ6.XXXXouYLLIgoXXXXX.X.=qoXXXXX7ELLPv+..o..>PLL",
"LLLY6.XXXXouYLLIyOXXXXXXXX=qo.XXXX7!LLYb@.....:LLL",
"YQYY6.XXX.ouYLIYfO.XXXXXX.=0o.XX..7YLLLv@.oo..>PPP",
"066e5 ...XouYLLIfo..XXXXX.=0X.....7YLLYb+.....%767",
"=X ,s443334vYLYYgOXXXXXXX.=g444333gPLLYb+XXXXXX.Xo",
"=XX,Q!QQYQYYLIYQfoXXXXXX..=F!!YQYYPLYQ!M+.XXXXXX.o",
"=X.;sskFLLLLLMss7oXXXXXX..&ppgFLLLPPAggq+XXXXXXX.o",
"=XXXoo%VPLLLY6oooXXXXXXXXX.oo@lYPPPP0XooXXXXXXXXXX",
"=XXX. #APLPL!5.XXXXXXXXXXXXX.OxQLPPY0XXXXXXXXXXXXo",
"=XXXXX@xVZAMZ4.XXXXXXXXXXXXXXOpAMVAA7XXXXXXXXXXXXo",
"=XXXXXX#$$$$$+XXXXXXXXXXXXXX..+&$$$$+oXXXXXXXXXXXX",
"=XXXXXXX......XXXXXXXXXXXXXXX...X..XXXXXXXXXXXXXXo",
"=XXXXXXXXXXXXXXXXXXXXXXXXXXXXXXXXXXXXXXXXXXXXXXXXo",
"=XXXXXXXXXXXXXXX@700000=XXXXXXXXXXXXXXXXXXXXXXXXXX",
"=XXXXXXXXXXXXXX &AQITIY3XXXXXXXXXXXXXXXXXXXXXXXXXo",
"=.XXXXXXXXXXXXXX$AILQYI3.XXXXXXXXXXXXXXXXX.XXXXXXo",
"=XXXXXXXXXXXXXX.$SIILLI2.XXXXXXXXXXXXXXXXXXXXXXXXX",
"=XXXXXXXXXXXXXX.&BIILII2.XXXXXXXXXXXXXXXXXXXXXXXXo",
"=XXXXXXX.XXXXXX.&SQQIIQ3.XXXXXXXXXXXXXXXXXXXXXXXXo",
"=XXXXXXXXXXXXXX.#uhhhsh>.XXXXXXXXXXXXXXXXXXXXXXXXo",
"=XXXXXXXXXXXXXXXXOOoOoOXXXXXXXXXXXXXXXXXXX.XXXXXXX",
"=XXXXXXXXXX.XXXXXX XXXXXXXXXXXXXXXXXXXXXX...XXXXXo",
"=XXXXX.oooo.XXXXXXXXoOoOoOOoOoXXXXXXXXXXoo+oXXXXXo",
"=XXXXX@wsu&.XXXXXXXX8sssssssse@XXXXXXXXO0gu=.XXXXo",
"=XXXX.#APL=.XXXXXXXOdTIILIIQIS& XXXXXX.+bEL:...oXX",
"=XXXX.@APD=.XXXXXXXosIKIHIHIIB@XXXXXX..+cLF:...XXo",
"=XX%779DLGq77-.XXXXouQIIIKIHHS# XXX.$779ZPLw77:XXo",
"=X.,YYQLLLYYE5.XXXXouQKKIKITIM&XXXX.;LYYLPLLYQ9XXX",
"=  ,LIIIIGLLI5XX.XXouIIIILLLIM@X..X.-LLLLLLLLY7..X",
"<*=6IIGIIILLQ9*==*==zIIGIILLIS,*===%4LLLLLLLLYw==-"
};
